<svg xmlns="http://www.w3.org/2000/svg" viewBox="0 0 960 560" fill="none" role="img" aria-label="Enterprise AI network"><g stroke="#171717" stroke-width="2"><path d="M80 90h800M80 190h800M80 290h800M80 390h800M80 490h800"/><path d="M160 50v460M320 50v460M480 50v460M640 50v460M800 50v460"/></g><g stroke="#BDBDBD" stroke-width="2" stroke-dasharray="6 9"><path d="M170 155 400 280 675 140M170 405 400 280l275 130M400 280 790 280"/></g><g fill="#111111" stroke="#FFFFFF" stroke-width="3"><circle cx="170" cy="155" r="40"/><circle cx="170" cy="405" r="40"/><circle cx="675" cy="140" r="40"/><circle cx="675" cy="410" r="40"/><circle cx="790" cy="280" r="40"/></g><g fill="#D4AF37" stroke="#D4AF37" stroke-width="3"><circle cx="400" cy="280" r="80"/></g><path d="M365 280h70M400 245v70M374 254l52 52M426 254l-52 52" stroke="#0A0A0A" stroke-width="5" stroke-linecap="round"/><g stroke="#D4AF37" stroke-width="3" stroke-linecap="round"><path d="M152 155h36M170 137v36M657 140h36M675 122v36M152 405h36M657 410h36M772 280h36"/></g><path d="M112 490h736" stroke="#D4AF37" stroke-width="3"/><path d="M200 490v-22M480 490v-22M760 490v-22" stroke="#FFFFFF" stroke-width="3"/></svg>
