<svg xmlns="http://www.w3.org/2000/svg" viewBox="0 0 960 560" fill="none" role="img" aria-label="Digital transformation workflows"><g fill="#111111" stroke="#FFFFFF" stroke-width="3"><rect x="95" y="197" width="190" height="146" rx="14"/><rect x="675" y="197" width="190" height="146" rx="14"/><rect x="382" y="129" width="196" height="282" rx="14"/></g><g stroke="#D4AF37" stroke-width="4" stroke-linecap="round" stroke-linejoin="round"><path d="M285 270h97l-25-24M285 270l72 24M578 270h97l-25-24M578 270l72 24"/></g><path d="M127 236h126M127 267h92M127 298h108" stroke="#BDBDBD" stroke-width="5" stroke-linecap="round"/><path d="M414 182h132M414 216h90" stroke="#D4AF37" stroke-width="5" stroke-linecap="round"/><g fill="#0A0A0A" stroke="#D4AF37" stroke-width="3"><circle cx="438" cy="280" r="19"/><circle cx="480" cy="325" r="19"/><circle cx="522" cy="280" r="19"/></g><path d="M457 280h46M449 293l20 20M511 293l-20 20" stroke="#FFFFFF" stroke-width="3"/><path d="M707 236h126M707 267h92M707 298h108" stroke="#FFFFFF" stroke-width="5" stroke-linecap="round"/><circle cx="799" cy="236" r="7" fill="#D4AF37"/></svg>
