<svg xmlns="http://www.w3.org/2000/svg" viewBox="0 0 960 560" fill="none" role="img" aria-label="Enterprise security architecture"><g fill="#111111" stroke="#FFFFFF" stroke-width="3"><rect x="90" y="116" width="180" height="92" rx="12"/><rect x="690" y="116" width="180" height="92" rx="12"/><rect x="90" y="352" width="180" height="92" rx="12"/><rect x="690" y="352" width="180" height="92" rx="12"/></g><g stroke="#BDBDBD" stroke-width="3" stroke-dasharray="6 9"><path d="M270 162h110M580 162h110M270 398h110M580 398h110"/></g><path d="m480 86 150 57v121c0 112-66 197-150 240-84-43-150-128-150-240V143l150-57Z" fill="#171717" stroke="#D4AF37" stroke-width="5" stroke-linejoin="round"/><path d="M414 255h132M480 189v132" stroke="#FFFFFF" stroke-width="6" stroke-linecap="round"/><circle cx="480" cy="255" r="28" fill="#D4AF37"/><circle cx="480" cy="255" r="10" fill="#0A0A0A"/><g stroke="#D4AF37" stroke-width="4" stroke-linecap="round"><path d="M120 160h120M720 160h120M120 396h120M720 396h120"/></g></svg>
